<svg width="42" height="41" viewBox="0 0 42 41" fill="none" xmlns="http://www.w3.org/2000/svg">
<path d="M7.54883 23.3545C8.9386 21.9552 10.2834 20.5036 11.7406 19.1754C12.5947 18.3972 12.988 17.4993 13.2016 16.4068C13.756 13.5559 14.3741 10.7163 14.9659 7.87285C15.0783 7.34158 15.1233 6.78786 15.2843 6.2753C15.6065 5.25766 16.3107 4.64782 17.3634 4.38967C19.9144 3.76487 22.4542 3.11387 24.9977 2.45914C26.8932 1.97277 28.7737 1.40035 30.6842 0.996283C31.8642 0.745614 33.164 1.35171 33.5611 2.85572C33.8271 3.86214 33.5723 4.72265 32.8231 5.45969C31.5457 6.71678 30.2871 7.99631 29.0584 9.22721C30.4257 10.5965 31.808 11.9771 33.224 13.3913C34.2391 12.3737 35.2618 11.3261 36.3032 10.2972C36.7265 9.88194 37.131 9.4255 37.6255 9.11123C38.9703 8.26195 41.0569 8.84934 41.4277 10.7724C41.5551 11.4421 41.3341 12.2053 41.173 12.9012C40.6897 14.9814 40.1653 17.0541 39.6446 19.1268C39.1726 21.0161 38.6557 22.898 38.2174 24.7949C38.0638 25.4608 37.9589 26.138 37.4008 26.5645C36.9775 26.8863 36.4755 27.1819 35.966 27.2941C34.078 27.7056 32.1713 28.0349 30.2684 28.3903C28.6426 28.6934 27.0243 29.0226 25.3911 29.2658C24.6044 29.3855 24.02 29.7073 23.4544 30.2722C20.7647 32.9734 18.0302 35.6298 15.3106 38.3011C14.4302 39.1653 13.5387 40.0258 12.6883 40.8527C11.3023 39.5021 9.93503 38.1701 8.56774 36.8382C8.66139 36.7297 8.73631 36.595 8.85244 36.5127C9.21205 36.2546 9.56793 35.9815 9.95751 35.7794C10.186 35.6597 10.482 35.6822 10.7404 35.6111C10.9352 35.5587 11.1188 35.4614 11.3098 35.3866C11.7106 35.843 12.1152 36.3032 12.5235 36.7671C12.7221 36.5876 12.7895 36.5314 12.8532 36.4716C14.3553 34.9938 15.8575 33.5197 17.3596 32.0418C19.1053 30.3246 20.8509 28.6073 22.6078 26.8975C22.7539 26.7553 22.9786 26.6543 23.1809 26.6132C24.2523 26.4111 25.3311 26.2465 26.4025 26.0482C29.1108 25.5469 31.8155 25.0493 34.5201 24.518C34.786 24.4657 35.1944 24.5704 35.2955 24.0878C35.4603 23.2946 35.6926 22.5127 35.8836 21.7233C36.3594 19.789 36.8276 17.851 37.2959 15.9167C37.5244 14.9664 37.7454 14.0161 37.9702 13.0658C37.9889 13.0134 38.0039 12.9611 38.0226 12.9049C37.9851 12.9386 37.9439 12.9723 37.9065 13.0022C36.3631 14.5848 34.8198 16.1636 33.3064 17.7163C30.407 14.8205 27.6087 12.0257 24.7917 9.21224C25.5521 8.45275 26.3463 7.66333 27.1367 6.87391C27.9271 6.08823 28.7138 5.29881 29.5604 4.45701C29.403 4.45701 29.3431 4.44579 29.2869 4.45701C27.7173 4.86108 26.1478 5.2614 24.5782 5.6692C22.5703 6.18925 20.5625 6.71678 18.5508 7.2256C18.2999 7.2892 18.1126 7.37151 18.0526 7.64088C17.9552 8.08236 17.8578 8.52758 17.7679 8.9728C17.4158 10.6976 17.0674 12.4223 16.7191 14.1471C16.4081 15.6698 16.1085 17.1925 15.7826 18.7077C15.6889 19.138 15.6327 19.572 15.2581 19.9312C13.6998 21.4352 12.1826 22.9841 10.6468 24.5143C10.4482 24.7126 10.231 24.8922 10.0249 25.083C9.76646 25.0268 9.50799 24.9371 9.24952 24.9146C8.45911 24.8547 8.0433 24.3796 7.79606 23.68C7.75486 23.5565 7.63499 23.463 7.54883 23.3545Z" fill="#000864" style="fill:#000864;fill:color(display-p3 0.0000 0.0314 0.3922);fill-opacity:1;"/>
<path d="M3.93439 32.3487C3.76957 32.4946 3.60474 32.6442 3.48113 32.7527C2.41726 31.6902 1.35714 30.6351 0.323242 29.6063C1.32343 28.6073 2.37231 27.5598 3.4549 26.4785C3.57478 26.5833 3.74709 26.7329 3.92316 26.8863C4.67236 27.6383 5.4253 28.3866 6.17451 29.1386C6.31685 29.2995 6.45546 29.4604 6.60155 29.6287C6.45171 29.8008 6.31311 29.9542 6.17825 30.1076C5.42905 30.8559 4.67985 31.6041 3.93065 32.3524L3.93439 32.3487Z" fill="#000864" style="fill:#000864;fill:color(display-p3 0.0000 0.0314 0.3922);fill-opacity:1;"/>
<path d="M37.9072 13.0133C37.9447 12.9796 37.9859 12.9459 38.0234 12.916C38.0046 12.9684 37.9896 13.0208 37.9709 13.0769C37.9447 13.0582 37.926 13.0395 37.9072 13.017L37.9072 13.0133Z" fill="#000864" style="fill:#000864;fill:color(display-p3 0.0000 0.0314 0.3922);fill-opacity:1;"/>
<path d="M26.5524 22.969C24.1512 20.5708 21.7013 18.124 19.2852 15.7108C20.6524 14.3452 22.0535 12.946 23.4133 11.5879C25.8107 13.9823 28.2681 16.4329 30.6805 18.8461C29.3469 20.178 27.9497 21.5735 26.5524 22.969ZM22.2707 16.6237C22.9637 15.9316 23.668 15.2319 24.3722 14.5248C24.095 14.248 23.7804 13.9337 23.4994 13.6531C22.7877 14.364 22.0872 15.0636 21.3754 15.7744C21.6714 16.055 21.9898 16.3618 22.2707 16.6275L22.2707 16.6237ZM25.6534 15.8193C24.9491 16.5227 24.2449 17.2223 23.5369 17.9294C23.8216 18.2138 24.1362 18.5281 24.4284 18.8236C25.1289 18.109 25.8257 17.4019 26.5262 16.6873C26.2452 16.4067 25.9306 16.0925 25.6534 15.8193ZM26.4663 20.8963C27.193 20.1593 27.8897 19.4559 28.5415 18.7974C28.2906 18.5094 27.9984 18.1764 27.7624 17.907C27.0356 18.6366 26.3351 19.3362 25.6421 20.0358C25.9043 20.3089 26.204 20.6195 26.47 20.8963L26.4663 20.8963Z" fill="#000864" style="fill:#000864;fill:color(display-p3 0.0000 0.0314 0.3922);fill-opacity:1;"/>
<path d="M10.4848 24.6628L8.35254 22.5332L3.95814 26.9221L6.09044 29.0518L10.4848 24.6628Z" fill="url(#paint0_linear_3214_115318)" style=""/>
<path d="M10.4946 38.8015L12.627 36.6719L6.11613 30.1692L3.98383 32.2988L10.4946 38.8015Z" fill="url(#paint1_linear_3214_115318)" style=""/>
<defs>
<linearGradient id="paint0_linear_3214_115318" x1="9.40458" y1="23.6" x2="5.02121" y2="27.9888" gradientUnits="userSpaceOnUse">
<stop offset="0.3031" stop-color="#0A001F" style="stop-color:#0A001F;stop-color:color(display-p3 0.0392 0.0000 0.1216);stop-opacity:1;"/>
<stop offset="1" stop-color="#0A001F" stop-opacity="0" style="stop-color:none;stop-color:none;stop-opacity:0;"/>
</linearGradient>
<linearGradient id="paint1_linear_3214_115318" x1="11.555" y1="37.7187" x2="5.06051" y2="31.2162" gradientUnits="userSpaceOnUse">
<stop offset="0.3031" stop-color="#0A001F" style="stop-color:#0A001F;stop-color:color(display-p3 0.0392 0.0000 0.1216);stop-opacity:1;"/>
<stop offset="1" stop-color="#0A001F" stop-opacity="0" style="stop-color:none;stop-color:none;stop-opacity:0;"/>
</linearGradient>
</defs>
</svg>
