<svg width="20" height="21" viewBox="0 0 20 21" fill="none" xmlns="http://www.w3.org/2000/svg">
<path d="M13.9492 14.4492C14.2984 14.4492 14.6332 14.5879 14.8801 14.8348C15.1269 15.0817 15.2656 15.4165 15.2656 15.7656C15.2656 16.1148 15.1269 16.4496 14.8801 16.6965C14.6332 16.9433 14.2984 17.082 13.9492 17.082C13.6001 17.082 13.2653 16.9433 13.0184 16.6965C12.7715 16.4496 12.6328 16.1148 12.6328 15.7656C12.6328 15.035 13.2186 14.4492 13.9492 14.4492ZM3.41797 3.91797H5.57029L6.189 5.23438H15.9238C16.0984 5.23438 16.2658 5.30372 16.3892 5.42716C16.5127 5.5506 16.582 5.71801 16.582 5.89258C16.582 6.00447 16.5491 6.11637 16.503 6.22168L14.1467 10.4803C13.9229 10.8818 13.4885 11.1582 12.9948 11.1582H8.09121L7.49883 12.2311L7.47908 12.3101C7.47908 12.3537 7.49642 12.3956 7.52728 12.4264C7.55814 12.4573 7.59999 12.4746 7.64363 12.4746H15.2656V13.791H7.36719C7.01805 13.791 6.68322 13.6523 6.43635 13.4054C6.18947 13.1586 6.05078 12.8237 6.05078 12.4746C6.05078 12.2442 6.11002 12.027 6.20875 11.8427L7.10391 10.2301L4.73438 5.23438H3.41797V3.91797ZM7.36719 14.4492C7.71632 14.4492 8.05115 14.5879 8.29803 14.8348C8.5449 15.0817 8.68359 15.4165 8.68359 15.7656C8.68359 16.1148 8.5449 16.4496 8.29803 16.6965C8.05115 16.9433 7.71632 17.082 7.36719 17.082C7.01805 17.082 6.68322 16.9433 6.43635 16.6965C6.18947 16.4496 6.05078 16.1148 6.05078 15.7656C6.05078 15.035 6.63658 14.4492 7.36719 14.4492ZM13.291 9.8418L15.1208 6.55078H6.80113L8.35449 9.8418H13.291Z" fill="black" style="fill:black;fill:black;fill-opacity:1;"/>
</svg>
