<svg width="131" height="36" viewBox="0 0 131 36" fill="none" xmlns="http://www.w3.org/2000/svg">
<g id="Group 112">
<g id="Group 108">
<g id="Group 108_2">
<g id="Group 110">
<path id="Vector" d="M32.4817 6.75195V26.091C32.4817 26.9456 31.5253 27.4493 30.8203 26.9663L23.7297 22.0737C23.4411 21.8755 23.2721 21.5494 23.2721 21.1984V12.9451L32.4817 6.75195Z" fill="white" style="fill:white;fill-opacity:1;"/>
<path id="Vector_2" d="M14.5967 19.1377L30.9876 30.0912C31.808 30.6445 31.808 31.8501 30.9876 32.4033L26.7992 35.2191C25.4594 36.1233 23.7032 36.1233 22.3634 35.2191L6.45892 24.6083L14.5926 19.1377H14.5967Z" fill="#F6F6F6" style="fill:#F6F6F6;fill:color(display-p3 0.9647 0.9647 0.9647);fill-opacity:1;"/>
<path id="Vector_3" d="M5.3616 23.3037L32.2566 5.21152C32.6359 4.95553 32.64 4.39815 32.2566 4.13804L27.2025 0.690546C25.8585 -0.226035 24.0941 -0.230163 22.7461 0.67816L1.61839 14.8934C-0.471699 16.3013 -0.471699 19.3814 1.61839 20.7851L5.3616 23.3037Z" fill="white" style="fill:white;fill-opacity:1;"/>
</g>
</g>
</g>
<g id="Group 109">
<g id="Group 111">
<g id="Online Retailer">
<path d="M54.1666 18.0059H50.4853L48.1992 13.9774H46.4174V18.0059H43.2909V6.20703H49.0397C52.2839 6.20703 53.8304 7.6566 53.8304 9.9658C53.8304 11.7356 52.8891 12.8312 51.3594 13.3706L54.1666 18.0059ZM49.0061 8.87019H46.4174V11.3479H49.0061C50.0483 11.3479 50.6366 10.8929 50.6366 10.0838C50.6366 9.30844 50.1491 8.87019 49.0061 8.87019Z" fill="white" style="fill:white;fill-opacity:1;"/>
<path d="M55.9505 6.20703H65.162V8.87019H59.1106V10.7243H64.6913V13.3875H59.1106V15.3427H65.162V18.0059H55.9505V6.20703Z" fill="white" style="fill:white;fill-opacity:1;"/>
<path d="M66.8105 8.97133V6.20703H77.7702V8.97133H73.8705V18.0059H70.7103V8.97133H66.8105Z" fill="white" style="fill:white;fill-opacity:1;"/>
<path d="M80.3903 18.0059H77.1797L82.0208 6.20703H85.4667L90.3246 18.0059H87.0132L86.1895 15.8989H81.2139L80.3903 18.0059ZM82.2561 13.2358H85.1473L83.7017 9.52756L82.2561 13.2358Z" fill="white" style="fill:white;fill-opacity:1;"/>
<path d="M91.8948 6.20703H95.055V18.0059H91.8948V6.20703Z" fill="white" style="fill:white;fill-opacity:1;"/>
<path d="M97.4289 6.20703H100.589V15.309H106.052V18.0059H97.4289V6.20703Z" fill="white" style="fill:white;fill-opacity:1;"/>
<path d="M107.955 6.20703H117.166V8.87019H111.115V10.7243H116.695V13.3875H111.115V15.3427H117.166V18.0059H107.955V6.20703Z" fill="white" style="fill:white;fill-opacity:1;"/>
<path d="M130.127 18.0059H126.446L124.16 13.9774H122.378V18.0059H119.252V6.20703H125C128.245 6.20703 129.791 7.6566 129.791 9.9658C129.791 11.7356 128.85 12.8312 127.32 13.3706L130.127 18.0059ZM124.967 8.87019H122.378V11.3479H124.967C126.009 11.3479 126.597 10.8929 126.597 10.0838C126.597 9.30844 126.11 8.87019 124.967 8.87019Z" fill="white" style="fill:white;fill-opacity:1;"/>
</g>
<g id="LOGO">
<path d="M43.6548 21.9312H45.2096V26.4002H47.8974V27.7243H43.6548V21.9312Z" fill="white" style="fill:white;fill-opacity:1;"/>
<path d="M52.0368 21.7988C53.8396 21.7988 55.1215 23.1064 55.1215 24.8195C55.1215 26.5326 53.8314 27.8568 52.0202 27.8568C50.2173 27.8568 48.9355 26.5492 48.9355 24.8361C48.9355 23.123 50.2256 21.7988 52.0368 21.7988ZM52.0368 26.5243C52.9382 26.5243 53.5502 25.7961 53.5502 24.8361C53.5502 23.8761 52.9217 23.1312 52.0202 23.1312C51.1188 23.1312 50.5068 23.8595 50.5068 24.8195C50.5068 25.7795 51.1353 26.5243 52.0368 26.5243Z" fill="white" style="fill:white;fill-opacity:1;"/>
<path d="M59.4471 23.123C58.5953 23.123 57.8675 23.8264 57.8675 24.8195C57.8675 25.8457 58.5291 26.5326 59.4388 26.5326C60.1087 26.5326 60.5967 26.2678 60.7951 25.6471H59.1742V24.4223H62.292C62.3168 24.5547 62.3334 24.7699 62.3334 24.9271C62.3334 26.6981 61.2335 27.8568 59.3727 27.8568C57.5946 27.8568 56.2962 26.5988 56.2962 24.8361C56.2962 23.0485 57.7104 21.7988 59.4554 21.7988C60.6297 21.7988 61.5229 22.3368 61.9612 23.0319L60.9027 23.9009C60.547 23.4043 60.0839 23.123 59.4471 23.123Z" fill="white" style="fill:white;fill-opacity:1;"/>
<path d="M66.6532 21.7988C68.4561 21.7988 69.738 23.1064 69.738 24.8195C69.738 26.5326 68.4479 27.8568 66.6367 27.8568C64.8338 27.8568 63.5519 26.5492 63.5519 24.8361C63.5519 23.123 64.8421 21.7988 66.6532 21.7988ZM66.6532 26.5243C67.5547 26.5243 68.1667 25.7961 68.1667 24.8361C68.1667 23.8761 67.5381 23.1312 66.6367 23.1312C65.7353 23.1312 65.1233 23.8595 65.1233 24.8195C65.1233 25.7795 65.7518 26.5243 66.6532 26.5243Z" fill="white" style="fill:white;fill-opacity:1;"/>
</g>
</g>
</g>
</g>
</svg>
