<svg width="36" height="37" viewBox="0 0 36 37" fill="none" xmlns="http://www.w3.org/2000/svg">
<path fill-rule="evenodd" clip-rule="evenodd" d="M17.5 9.61175C17.9893 9.53815 18.4902 9.5 19 9.5C24.5228 9.5 29 13.9772 29 19.5C29 25.0228 24.5228 29.5 19 29.5C13.4772 29.5 9 25.0228 9 19.5C9 15.5958 11.2374 12.2141 14.5 10.5673V8.37228C10.1023 10.1524 7 14.4639 7 19.5C7 26.1274 12.3726 31.5 19 31.5C25.6274 31.5 31 26.1274 31 19.5C31 12.8726 25.6274 7.5 19 7.5C18.492 7.5 17.9914 7.53156 17.5 7.59284V9.61175Z" fill="#5B69FF" style="fill:#5B69FF;fill:color(display-p3 0.3569 0.4118 1.0000);fill-opacity:1;"/>
<path fill-rule="evenodd" clip-rule="evenodd" d="M16 13.5V9.63333V7.5H13.7143H10V9H14.5V13.5H16Z" fill="#5B69FF" style="fill:#5B69FF;fill:color(display-p3 0.3569 0.4118 1.0000);fill-opacity:1;"/>
</svg>
