<svg width="34" height="34" viewBox="0 0 34 34" fill="none" xmlns="http://www.w3.org/2000/svg">
<path d="M5.45928 20.0759L3.48242 22.0527L5.45928 24.0296L7.43614 22.0527L5.45928 20.0759Z" fill="white" style="fill:white;fill:white;fill-opacity:1;"/>
<path d="M30.7518 2.7959H26.5723V6.97547H30.7518V2.7959Z" fill="white" style="fill:white;fill:white;fill-opacity:1;"/>
<path d="M28.7687 8.76455C28.3856 8.60144 27.9625 8.55688 27.5538 8.63661C27.1452 8.71635 26.7698 8.91671 26.4762 9.21186L23.0794 12.5807H20.9687V10.5258L24.3515 7.14304C24.6494 6.84825 24.8516 6.47041 24.9314 6.05891C25.0112 5.64741 24.965 5.2214 24.7988 4.83659C24.6338 4.4556 24.3602 4.13172 24.0121 3.90546C23.664 3.6792 23.2569 3.56062 22.8418 3.56455L14.1472 4.64089C13.6693 4.67977 13.2187 4.87908 12.8685 5.20645C12.5183 5.53382 12.2891 5.97001 12.2181 6.44412L11.3375 14.2162L6.45898 19.0807L8.38802 21.0656L13.9794 15.4742L14.902 7.32476L20.9687 6.61186L18.173 9.40756V15.3764H24.2816L27.0773 12.5807L26.3783 18.7033L18.0472 19.5699L11.4493 26.042L8.38802 23.0366L6.45898 25.0076L9.78587 28.3624L11.3934 29.9839L19.2773 22.2119L27.3009 21.457C27.7594 21.3789 28.1792 21.1516 28.4952 20.8103C28.8111 20.4691 29.0056 20.033 29.0482 19.5699L30.0407 10.9312V10.7914C30.0568 10.3649 29.944 9.94342 29.7172 9.58188C29.4903 9.22035 29.1597 8.93554 28.7687 8.76455Z" fill="white" style="fill:white;fill:white;fill-opacity:1;"/>
</svg>
