<svg style="width:100%;height:100%;" viewBox="0 0 32 32" fill="none" xmlns="http://www.w3.org/2000/svg">
<g clip-path="url(#clip0_11_27156)">
<path d="M3.85533 5.33582C4.6733 5.33582 5.3364 4.67272 5.3364 3.85475C5.3364 3.03678 4.6733 2.37369 3.85533 2.37369C3.03736 2.37369 2.37427 3.03678 2.37427 3.85475C2.37427 4.67272 3.03736 5.33582 3.85533 5.33582Z" fill="currentColor"/>
<path d="M3.92265 29.6253C4.77781 29.6253 5.47104 28.9321 5.47104 28.0769C5.47104 27.2218 4.77781 26.5285 3.92265 26.5285C3.0675 26.5285 2.37427 27.2218 2.37427 28.0769C2.37427 28.9321 3.0675 29.6253 3.92265 29.6253Z" fill="currentColor"/>
<path d="M28.0774 5.47046C28.9326 5.47046 29.6258 4.77723 29.6258 3.92207C29.6258 3.06692 28.9326 2.37369 28.0774 2.37369C27.2223 2.37369 26.5291 3.06692 26.5291 3.92207C26.5291 4.77723 27.2223 5.47046 28.0774 5.47046Z" fill="currentColor"/>
<path d="M28.0774 29.6253C28.9326 29.6253 29.6258 28.9321 29.6258 28.0769C29.6258 27.2218 28.9326 26.5285 28.0774 26.5285C27.2223 26.5285 26.5291 27.2218 26.5291 28.0769C26.5291 28.9321 27.2223 29.6253 28.0774 29.6253Z" fill="currentColor"/>
</g>
<path fill-rule="evenodd" clip-rule="evenodd" d="M16.8784 13.9854L16.8776 13.9889L16.8803 13.9862L16.8784 13.9854ZM13.8045 7.60863C14.832 8.84279 15.4522 10.4276 15.4522 12.1551C15.4522 12.7769 15.3626 13.3776 15.2125 13.9546C15.4575 13.8598 15.7236 13.8018 16.0029 13.8018C16.3157 13.8018 16.6101 13.87 16.8784 13.9854C17.0071 13.3937 17.099 12.7888 17.099 12.1577C17.099 10.3708 16.5568 8.71807 15.6362 7.33578C15.0059 7.36179 14.3931 7.45507 13.8045 7.60863ZM7.6093 18.1948C7.45573 17.6062 7.36244 16.9934 7.33643 16.3631C8.71873 15.4425 10.3715 14.9003 12.1584 14.9003C12.7895 14.9003 13.3944 14.9921 13.9862 15.1209C13.8707 15.3891 13.8025 15.6835 13.8025 15.9964C13.8025 16.2756 13.8605 16.5418 13.9553 16.7868C13.3783 16.6366 12.7776 16.547 12.1558 16.547C10.4283 16.547 8.84347 17.1673 7.6093 18.1948ZM11.6193 23.484C11.0837 23.1698 10.5848 22.7997 10.1306 22.3819C10.4576 20.7546 11.2432 19.2038 12.5061 17.9409C12.9531 17.494 13.4472 17.131 13.9572 16.8022C14.1685 17.3375 14.5813 17.7677 15.1067 18.0015C14.5955 18.3019 14.1081 18.6628 13.6681 19.1028C12.4478 20.3254 11.7666 21.8849 11.6193 23.484ZM18.1953 24.3899C17.6068 24.5434 16.994 24.6367 16.3638 24.6627C15.4434 23.2805 14.9013 21.6279 14.9013 19.8413C14.9013 19.2102 14.9932 18.6053 15.1219 18.0136C15.3901 18.129 15.6846 18.1972 15.9974 18.1972C16.2767 18.1972 16.5428 18.1392 16.7878 18.0444C16.6376 18.6214 16.5481 19.2221 16.5481 19.844C16.5481 21.5712 17.1682 23.1558 18.1953 24.3899ZM23.4846 20.3798C23.1704 20.9154 22.8004 21.4144 22.3825 21.8686C20.7554 21.5415 19.2046 20.7559 17.9418 19.493C17.4938 19.0451 17.1302 18.5498 16.8009 18.0386C17.3365 17.8286 17.7675 17.4171 18.0025 16.8928C18.3028 17.4038 18.6638 17.8912 19.1037 18.3311C20.3262 19.5513 21.8856 20.2325 23.4846 20.3798ZM24.3906 13.8042C24.5442 14.3928 24.6374 15.0057 24.6634 15.6359C23.2811 16.5565 21.6284 17.0986 19.8416 17.0986C19.2105 17.0986 18.6056 17.0068 18.0138 16.8781C18.1293 16.6098 18.1975 16.3154 18.1975 16.0026C18.1975 15.7233 18.1395 15.4572 18.0447 15.2121C18.6217 15.3623 19.2224 15.4519 19.8442 15.4519C21.5717 15.4519 23.1565 14.8316 24.3906 13.8042ZM20.3806 8.51465C20.9162 8.82883 21.4151 9.19886 21.8693 9.61676C21.5422 11.2438 20.7566 12.7945 19.4938 14.0573C19.0469 14.5043 18.5527 14.8673 18.0428 15.196C17.8314 14.6608 17.4187 14.2305 16.8933 13.9967C17.4044 13.6964 17.8919 13.3354 18.3319 12.8954C19.5521 11.6729 20.2333 10.1136 20.3806 8.51465ZM18.0428 15.196L18.0447 15.2008L18.0434 15.2002C18.0448 15.2037 18.0448 15.2089 18.0448 15.2089C18.0421 15.2062 18.0368 15.2062 18.0314 15.2062L18.0314 15.2062L18.0314 15.2062C18.0336 15.204 18.0375 15.2001 18.0404 15.1987L18.0394 15.1982L18.0428 15.196ZM18.0138 16.8781L18.013 16.88L18.0104 16.8773L18.0138 16.8781ZM18.0025 16.8928L18.0024 16.8925L18.005 16.8872L18.0025 16.8928ZM15.1219 18.0136L15.12 18.0128L15.1226 18.0101L15.1219 18.0136ZM13.9572 16.8022L13.9553 16.7974L13.9565 16.798C13.9564 16.7975 13.9563 16.797 13.9561 16.7965C13.9559 16.7955 13.9558 16.7945 13.9557 16.7936L13.9555 16.7903C13.9571 16.792 13.9598 16.7926 13.9628 16.7929L13.9652 16.793L13.969 16.793L13.969 16.793C13.9666 16.7954 13.962 16.8 13.9591 16.8009L13.9572 16.8022ZM13.9862 15.1209L13.987 15.119L13.9896 15.1216L13.9862 15.1209ZM8.51524 11.6187C8.82942 11.083 9.19945 10.5841 9.61735 10.1299C11.2445 10.457 12.7953 11.2426 14.0582 12.5054C14.5051 12.9524 14.8681 13.4465 15.1969 13.9565C14.6616 14.1678 14.2314 14.5806 13.9976 15.106C13.6972 14.5948 13.3362 14.1074 12.8962 13.6674C11.6737 12.4471 10.1142 11.7659 8.51524 11.6187ZM15.1969 13.9565L15.2017 13.9546L15.2008 13.9562C15.2043 13.9547 15.2098 13.9547 15.2098 13.9547C15.2093 13.9552 15.2089 13.9558 15.2086 13.9565C15.2082 13.9573 15.2079 13.9582 15.2077 13.9592L15.2074 13.9611C15.2071 13.9633 15.2071 13.9657 15.2071 13.9682C15.2068 13.9678 15.2064 13.9674 15.2059 13.967C15.2049 13.9659 15.2037 13.9647 15.2026 13.9634C15.2013 13.9619 15.2001 13.9603 15.1995 13.959L15.199 13.9598L15.1969 13.9565ZM18.0049 16.8862C18.0049 16.8862 18.0102 16.8783 18.0102 16.8757C18.0076 16.8757 18.0051 16.8757 18.0025 16.8754L17.9996 16.8749L17.9973 16.8743L17.9944 16.8731C17.997 16.8783 18.0023 16.8836 18.0049 16.8862L18.0049 16.8862ZM16.8774 13.989C16.8801 13.989 16.888 13.9942 16.888 13.9942C16.8854 13.9969 16.8801 14.0021 16.8748 14.0048C16.8774 13.9995 16.8774 13.9942 16.8774 13.989ZM16.8011 18.041C16.7984 18.0437 16.7903 18.0437 16.7903 18.0437C16.793 18.041 16.793 18.0356 16.793 18.0302V18.0302C16.7957 18.0329 16.8011 18.0383 16.8011 18.041ZM13.9897 15.1224C13.9897 15.1198 13.995 15.1119 13.995 15.1119C13.9976 15.1145 14.0029 15.1198 14.0056 15.125C14.0025 15.1235 13.9995 15.1229 13.9965 15.1226C13.9943 15.1224 13.992 15.1224 13.9897 15.1224ZM15.112 18.0042C15.112 18.0042 15.1199 18.0094 15.1226 18.0094C15.1226 18.0042 15.1226 17.9989 15.1252 17.9936C15.1199 17.9962 15.1147 18.0015 15.112 18.0042Z" fill="currentColor"/>
<path fill-rule="evenodd" clip-rule="evenodd" d="M16.0002 25.2898C21.1311 25.2898 25.2905 21.1304 25.2905 15.9995C25.2905 10.8686 21.1311 6.70917 16.0002 6.70917C10.8693 6.70917 6.70984 10.8686 6.70984 15.9995C6.70984 21.1304 10.8693 25.2898 16.0002 25.2898ZM27.7679 15.9995C27.7679 22.4986 22.4993 27.7672 16.0002 27.7672C9.50102 27.7672 4.23242 22.4986 4.23242 15.9995C4.23242 9.50035 9.50102 4.23175 16.0002 4.23175C22.4993 4.23175 27.7679 9.50035 27.7679 15.9995Z" fill="currentColor"/>
<path d="M15.9998 17.5479C16.855 17.5479 17.5482 16.8546 17.5482 15.9995C17.5482 15.1443 16.855 14.4511 15.9998 14.4511C15.1447 14.4511 14.4514 15.1443 14.4514 15.9995C14.4514 16.8546 15.1447 17.5479 15.9998 17.5479Z" fill="currentColor"/>
<defs>
<clipPath id="clip0_11_27156">
<rect width="27.2516" height="27.2516" fill="white" transform="translate(2.37427 2.37369)"/>
</clipPath>
</defs>
</svg>
