<svg width="26" height="26" viewBox="0 0 26 26" fill="none" xmlns="http://www.w3.org/2000/svg">
<path d="M5.57117 3.0957H3.09375V5.57414H5.57117V3.0957Z" fill="white" style="fill:white;fill:white;fill-opacity:1;"/>
<path d="M25.3875 11.7476V8.02839H22.9175L22.9101 4.86279C22.9096 4.39603 22.7241 3.94851 22.3944 3.6184C22.0646 3.28829 21.6176 3.10254 21.1512 3.10187H17.9714V0.620233H14.2553V3.10187H11.7718V0.614258H8.05569V3.10187H6.83097V5.58132H11.7617V9.28218H14.2391V5.58132H20.4411L20.4467 11.7616H16.7165V14.2411H20.449L20.4514 17.0129L16.7165 20.4707L14.2391 20.4726V15.487H10.523V11.7436H8.04554V17.9664H11.7617V20.4745L5.56812 20.4792V6.79623H3.0907V8.02839H0.613281V11.7476H3.0907V14.2411H0.613281V17.9602H3.0907V21.1983C3.09127 21.6653 3.2769 22.1129 3.60687 22.4431C3.93685 22.7732 4.38421 22.9588 4.85078 22.9592L8.04554 22.9568V25.3986H11.7617V22.9539L14.2391 22.952V25.3986H17.9552V22.9489L22.941 17.9911L22.9409 17.9602H25.3875V14.2411H22.9321L22.9262 11.7476H25.3875Z" fill="white" style="fill:white;fill:white;fill-opacity:1;"/>
</svg>
