<svg width="32" height="32" viewBox="0 0 32 32" fill="none" xmlns="http://www.w3.org/2000/svg">
<path fill-rule="evenodd" clip-rule="evenodd" d="M4.0259 18.2588H4.02596L4.02596 27.8588H15.7687V23.5233H15.7686L15.7686 1.84591L19.6912 1.84591V4.51688H18.4009V12.9943L18.4396 21.2007V21.9749V23.5233H18.4375L18.4397 23.9878V24.762V26.5685V28.9556C18.427 29.3429 18.2683 29.7111 17.9955 29.9863C17.7227 30.2615 17.3559 30.4234 16.9687 30.4395L1.44531 30.4395L1.46365 23.5233H1.4562L1.50977 3.31688C1.50975 2.92898 1.66296 2.55677 1.93603 2.28128C2.20911 2.00579 2.57995 1.84931 2.96783 1.84591H14.4783V4.42655H4.0259L4.0259 18.2588ZM4.54209 10.5169C4.54209 7.61457 6.90152 5.25236 9.8066 5.25236C12.7117 5.25236 15.0711 7.61457 15.0711 10.5169C15.0711 13.4192 12.7117 15.7814 9.8066 15.7814C6.90152 15.7814 4.54209 13.4192 4.54209 10.5169ZM7.3143 8.19768C6.7474 8.80649 6.40015 9.62226 6.40015 10.5169L6.40016 10.5237C7.16993 10.9557 8.12747 11.0133 8.96526 10.6146C8.07839 10.0518 7.50609 9.1648 7.3143 8.19768ZM8.1726 7.52885C8.65797 7.26222 9.21491 7.11042 9.8066 7.11042C10.0702 7.11042 10.3269 7.14055 10.5734 7.19753C9.87165 7.84414 9.41858 8.75664 9.37597 9.77257C8.61855 9.25093 8.19051 8.40329 8.1726 7.52885ZM11.5631 7.59946C12.246 8.01239 12.7732 8.65824 13.0336 9.42565C12.1503 9.17805 11.177 9.25455 10.3105 9.70747C10.3806 8.82743 10.8626 8.06003 11.5631 7.59946ZM13.2129 10.4795C13.213 10.492 13.2131 10.5044 13.2131 10.5169C13.2131 11.3377 12.9207 12.0921 12.4347 12.6812C12.2043 11.8005 11.6535 11.0041 10.8344 10.4842C11.6057 10.1172 12.4785 10.137 13.2129 10.4795ZM11.6182 13.4002C11.0932 13.7314 10.4718 13.9233 9.8066 13.9233C9.61743 13.9233 9.43181 13.9078 9.25094 13.878C9.9385 13.2328 10.3814 12.33 10.4235 11.3261C11.1318 11.8139 11.5521 12.5869 11.6182 13.4002ZM8.2025 13.5211C7.44838 13.1166 6.86318 12.4364 6.58254 11.6168C7.51295 11.9297 8.5621 11.8759 9.48891 11.3914C9.41764 12.2855 8.9212 13.0633 8.2025 13.5211ZM9.8066 16.4007C6.90152 16.4007 4.54209 18.763 4.54209 21.6653C4.54209 24.5676 6.90152 26.9298 9.8066 26.9298C12.7117 26.9298 15.0711 24.5676 15.0711 21.6653C15.0711 18.763 12.7117 16.4007 9.8066 16.4007ZM6.40015 21.6653C6.40015 20.7708 6.74727 19.9552 7.31399 19.3464C7.50583 20.3134 8.07812 21.2003 8.96495 21.7631C8.12723 22.1616 7.16983 22.104 6.40016 21.6721L6.40015 21.6653ZM9.8066 18.2588C9.21477 18.2588 8.6577 18.4107 8.17224 18.6774C8.19019 19.5523 8.61867 20.4003 9.3768 20.9219C9.41922 19.9056 9.87234 18.9929 10.5742 18.3461C10.3275 18.289 10.0705 18.2588 9.8066 18.2588ZM13.0337 20.5742C12.7733 19.8069 12.2464 19.1612 11.5636 18.7482C10.8635 19.2087 10.3816 19.9758 10.3114 20.8556C11.1776 20.403 12.1507 20.3267 13.0337 20.5742ZM13.213 21.6461C13.213 21.6401 13.2129 21.6341 13.2129 21.6281C12.4786 21.2855 11.6058 21.2658 10.8345 21.6327C11.6536 22.1525 12.2044 22.9487 12.4349 23.8293C12.9208 23.2402 13.2131 22.4859 13.2131 21.6653C13.2131 21.6589 13.213 21.6525 13.213 21.6461ZM9.8066 25.0717C10.472 25.0717 11.0934 24.8797 11.6186 24.5484C11.5523 23.7352 11.1321 22.9625 10.4239 22.4747C10.3817 23.4785 9.93891 24.3813 9.25143 25.0265C9.43214 25.0562 9.6176 25.0717 9.8066 25.0717ZM6.58253 22.7651C6.86321 23.5849 7.44856 24.2652 8.20286 24.6697C8.92169 24.2118 9.41817 23.4338 9.48932 22.5396C8.56241 23.0242 7.51308 23.0781 6.58253 22.7651ZM29.0066 15.6911L29.0066 18.7878H25.9098L25.9098 15.6911H29.0066ZM19.7163 5.78139V7.63946C23.4789 7.63946 26.5292 10.6897 26.5292 14.4524H28.3872C28.3872 9.66352 24.5051 5.78139 19.7163 5.78139Z" fill="white" style="fill:white;fill:white;fill-opacity:1;"/>
</svg>
