<svg width="37" height="37" viewBox="0 0 37 37" fill="none" xmlns="http://www.w3.org/2000/svg">
<path d="M9.04039 6.05762H6.01172V9.08629H9.04039V6.05762Z" fill="white" style="fill:white;fill:white;fill-opacity:1;"/>
<path d="M21.2318 22.714C22.0647 22.714 22.7462 22.0325 22.7462 21.1996V15.1423C22.7462 14.3094 22.0647 13.6279 21.2318 13.6279H15.1745C14.3416 13.6279 13.6602 14.3094 13.6602 15.1423V21.1996C13.6602 22.0325 14.3416 22.714 15.1745 22.714H21.2318ZM15.9317 15.8994H20.4747V20.4424H15.9317V15.8994Z" fill="white" style="fill:white;fill:white;fill-opacity:1;"/>
<path d="M33.316 16.6574V12.1143H30.3177V8.17707C30.3177 6.99588 29.3485 6.02671 28.1673 6.02671H24.23V3.02832H19.687V6.02671H16.6583V3.02832H12.1153V6.02671H10.5707V9.05538H27.289V27.2577H9.11693V10.5394H6.08826V12.1143H3.0293V16.6574H6.08826V19.686H3.0293V24.229H6.08826V28.136C6.08826 29.3172 7.05743 30.2864 8.23862 30.2864H12.1153V33.3151H16.6583V30.2864H19.687V33.3302H24.23V30.2864H30.3328V24.229H33.3312V19.686H30.3328V16.6574H33.3312H33.316Z" fill="white" style="fill:white;fill:white;fill-opacity:1;"/>
</svg>
