<svg width="32" height="32" viewBox="0 0 32 32" fill="none" xmlns="http://www.w3.org/2000/svg">
<path fill-rule="evenodd" clip-rule="evenodd" d="M23.4314 24.8774V24.8771L4.33455 24.8771L4.33455 14.4247H1.75391L1.75391 25.9352C1.75731 26.3231 1.91379 26.6939 2.18928 26.967C2.46477 27.2401 2.83697 27.3933 3.22487 27.3933L23.4314 27.4468V27.4397L30.3474 27.458L30.3474 11.9346C30.3313 11.5474 30.1694 11.1807 29.8942 10.9078C29.619 10.635 29.2508 10.4764 28.8635 10.4637H26.4764H24.67H23.8958L23.4314 10.4659V10.4634L8.29584 10.4634L8.29584 7.01907H5.62487L5.62487 13.1344L18.1671 13.1344V13.1346L27.7667 13.1346V24.8774H23.4314ZM1.76697 10.4891H4.34762V13.0697H1.76697L1.76697 10.4891ZM26.5284 23.1218V21.2637C22.7657 21.2637 19.7155 18.2135 19.7155 14.4508H17.8574C17.8574 19.2396 21.7395 23.1218 26.5284 23.1218ZM10.7348 9.49662L21.2638 9.49662V7.0192L10.7348 7.0192V9.49662ZM24.9801 9.49662H22.5027V7.0192H24.9801V9.49662Z" fill="white" style="fill:white;fill:white;fill-opacity:1;"/>
</svg>
