<svg style="width:100%;height:100%;" viewBox="0 0 32 32" fill="none" xmlns="http://www.w3.org/2000/svg">
<path d="M23.7405 9.19922H13.418V11.1347H23.7405V9.19922Z" fill="currentColor" style="fill:currentColor;fill:currentColor;fill-opacity:1;"/>
<path d="M10.8373 9.19922H8.26953V11.1347H10.8373V9.19922Z" fill="currentColor" style="fill:currentColor;fill:currentColor;fill-opacity:1;"/>
<path d="M25.0312 4.387V3.09668H22.4505V4.387H19.8699V3.09668H17.2893V4.387H14.7086V3.09668H12.128V4.387H9.54732V3.09668H6.96667V4.387H3.0957V13.4193V15.9999H28.9022V4.387H25.0312ZM5.67635 13.4193V6.96765H26.3215V13.4193H5.67635Z" fill="currentColor" style="fill:currentColor;fill:currentColor;fill-opacity:1;"/>
<path d="M23.7408 21.1602H21.1602V23.7408H23.7408V21.1602Z" fill="currentColor" style="fill:currentColor;fill:currentColor;fill-opacity:1;"/>
<path d="M3.08342 27.6123H5.66406V25.0317H3.08342L3.08342 27.6123Z" fill="currentColor" style="fill:currentColor;fill:currentColor;fill-opacity:1;"/>
<path d="M4.554 17.2901C4.36094 17.2883 4.16949 17.3253 3.99095 17.3988C3.81241 17.4722 3.6504 17.5807 3.51449 17.7178C3.37858 17.8549 3.27151 18.0179 3.19962 18.1971C3.12774 18.3763 3.09248 18.568 3.09593 18.7611V23.7417H5.67658V19.8707H26.3217V25.032H6.9669V26.4901V28.903H9.54755V27.6127H22.4508V28.903H25.0314V27.703H27.4185C27.8135 27.6866 28.1872 27.5197 28.4631 27.2366C28.739 26.9536 28.8961 26.5757 28.9024 26.1804V17.2901H4.554Z" fill="currentColor" style="fill:currentColor;fill:currentColor;fill-opacity:1;"/>
</svg>
