<svg style="width:100%;height:100%;" viewBox="0 0 32 32" fill="none" xmlns="http://www.w3.org/2000/svg">
<path d="M5.67635 6.97949H3.0957V9.56014H5.67635V6.97949Z" fill="currentColor" style="fill:currentColor;fill:currentColor;fill-opacity:1;"/>
<path d="M27.6763 13.9474H28.9667V6.9668H6.96667V9.54744H26.3215V11.741C25.6859 11.9816 25.1408 12.4138 24.7616 12.9779C24.3825 13.542 24.1881 14.21 24.2054 14.8894C24.1862 15.5805 24.3785 16.261 24.7567 16.8398C25.1349 17.4186 25.6809 17.8681 26.3215 18.1281V19.87H5.67635V18.0636C6.31459 17.8201 6.86246 17.3861 7.24564 16.8206C7.62882 16.255 7.82874 15.5853 7.81828 14.9023C7.83098 14.2107 7.63285 13.5317 7.25023 12.9554C6.86762 12.3792 6.31866 11.9331 5.67635 11.6765V10.8378H3.0957V13.9474H4.38603C4.61849 13.9746 4.83289 14.0862 4.98849 14.261C5.14409 14.4359 5.23005 14.6618 5.23005 14.8958C5.23005 15.1299 5.14409 15.3558 4.98849 15.5306C4.83289 15.7055 4.61849 15.8171 4.38603 15.8442H3.0957V22.4507H6.96667V23.741H9.54732V22.4507H12.128V23.741H14.7086V22.4507H17.2893V23.741H19.8699V22.4507H22.4505V23.741H25.0312V22.4507H28.9022V15.8442H27.6118C27.3794 15.8171 27.165 15.7055 27.0094 15.5306C26.8538 15.3558 26.7678 15.1299 26.7678 14.8958C26.7678 14.6618 26.8538 14.4359 27.0094 14.261C27.165 14.0862 27.3794 13.9746 27.6118 13.9474H27.6763Z" fill="currentColor" style="fill:currentColor;fill:currentColor;fill-opacity:1;"/>
<path d="M14.6829 12.1289H13.3926V17.2902H14.6829V12.1289Z" fill="currentColor" style="fill:currentColor;fill:currentColor;fill-opacity:1;"/>
<path d="M10.8118 12.1289H9.52148V17.2902H10.8118V12.1289Z" fill="currentColor" style="fill:currentColor;fill:currentColor;fill-opacity:1;"/>
<path d="M17.2891 12.1289V17.2902H22.4504V12.1289H17.2891ZM21.16 15.9999H18.5794V13.4192H21.16V15.9999Z" fill="currentColor" style="fill:currentColor;fill:currentColor;fill-opacity:1;"/>
</svg>
