<svg width="32" height="32" viewBox="0 0 32 32" fill="none" xmlns="http://www.w3.org/2000/svg">
<path fill-rule="evenodd" clip-rule="evenodd" d="M9.80576 0.515625H6.70898V3.61304H9.80576V0.515625ZM20.6384 22.2341H17.5416V25.3315H20.6384V22.2341ZM11.3604 16.0024H20.6414V17.5511H11.3604V16.0024ZM20.6414 19.1367H11.3604V20.6501H20.6414V19.1367ZM11.3559 0.515625L23.5052 0.516787C23.979 0.533277 24.4282 0.731894 24.7592 1.07129C25.0902 1.41068 25.2777 1.86471 25.2825 2.33884V29.9347H22.2232V29.9346H22.1946V31.4834H19.0978V29.9343L12.9042 29.9339V31.4834H9.80747V29.9336L8.52266 29.9335C8.04889 29.917 7.59973 29.7184 7.2687 29.379C6.93767 29.0396 6.75027 28.5856 6.74549 28.1114V5.16862H9.8047V26.8221L22.1946 26.8359L22.1728 3.60628L11.3559 3.61304V0.515625Z" fill="white" style="fill:white;fill:white;fill-opacity:1;"/>
</svg>
